<svg width="25" height="26" viewBox="0 0 25 26" fill="none" xmlns="http://www.w3.org/2000/svg">
<path d="M8.1237 2.13428H16.8737C20.207 2.13428 22.9154 4.84261 22.9154 8.17594V16.9259C22.9154 18.5283 22.2788 20.065 21.1458 21.198C20.0128 22.3311 18.476 22.9676 16.8737 22.9676H8.1237C4.79036 22.9676 2.08203 20.2593 2.08203 16.9259V8.17594C2.08203 6.57359 2.71856 5.03687 3.85159 3.90384C4.98463 2.77081 6.52135 2.13428 8.1237 2.13428ZM7.91536 4.21761C6.9208 4.21761 5.96698 4.6127 5.26371 5.31596C4.56045 6.01922 4.16536 6.97305 4.16536 7.96761V17.1343C4.16536 19.2072 5.84245 20.8843 7.91536 20.8843H17.082C18.0766 20.8843 19.0304 20.4892 19.7337 19.7859C20.4369 19.0827 20.832 18.1288 20.832 17.1343V7.96761C20.832 5.89469 19.1549 4.21761 17.082 4.21761H7.91536ZM17.9674 5.78011C18.3128 5.78011 18.644 5.91729 18.8882 6.16148C19.1323 6.40567 19.2695 6.73686 19.2695 7.08219C19.2695 7.42753 19.1323 7.75872 18.8882 8.00291C18.644 8.24709 18.3128 8.38428 17.9674 8.38428C17.6221 8.38428 17.2909 8.24709 17.0467 8.00291C16.8025 7.75872 16.6654 7.42753 16.6654 7.08219C16.6654 6.73686 16.8025 6.40567 17.0467 6.16148C17.2909 5.91729 17.6221 5.78011 17.9674 5.78011ZM12.4987 7.34261C13.88 7.34261 15.2048 7.89134 16.1815 8.8681C17.1583 9.84485 17.707 11.1696 17.707 12.5509C17.707 13.9323 17.1583 15.257 16.1815 16.2338C15.2048 17.2105 13.88 17.7593 12.4987 17.7593C11.1174 17.7593 9.7926 17.2105 8.81585 16.2338C7.8391 15.257 7.29036 13.9323 7.29036 12.5509C7.29036 11.1696 7.8391 9.84485 8.81585 8.8681C9.7926 7.89134 11.1174 7.34261 12.4987 7.34261ZM12.4987 9.42594C11.6699 9.42594 10.875 9.75518 10.289 10.3412C9.70294 10.9273 9.3737 11.7221 9.3737 12.5509C9.3737 13.3797 9.70294 14.1746 10.289 14.7607C10.875 15.3467 11.6699 15.6759 12.4987 15.6759C13.3275 15.6759 14.1224 15.3467 14.7084 14.7607C15.2945 14.1746 15.6237 13.3797 15.6237 12.5509C15.6237 11.7221 15.2945 10.9273 14.7084 10.3412C14.1224 9.75518 13.3275 9.42594 12.4987 9.42594Z" fill="white"/>
</svg>
