<svg width="25" height="26" viewBox="0 0 25 26" fill="none" xmlns="http://www.w3.org/2000/svg">
<path fill-rule="evenodd" clip-rule="evenodd" d="M5.20833 1.35303C4.4486 1.35303 3.71998 1.65483 3.18277 2.19204C2.64555 2.72926 2.34375 3.45788 2.34375 4.21761C2.34375 4.97734 2.64555 5.70596 3.18277 6.24318C3.71998 6.78039 4.4486 7.08219 5.20833 7.08219C5.96807 7.08219 6.69669 6.78039 7.2339 6.24318C7.77111 5.70596 8.07292 4.97734 8.07292 4.21761C8.07292 3.45788 7.77111 2.72926 7.2339 2.19204C6.69669 1.65483 5.96807 1.35303 5.20833 1.35303ZM3.90625 4.21761C3.90625 3.87228 4.04343 3.54109 4.28762 3.2969C4.53181 3.05271 4.863 2.91553 5.20833 2.91553C5.55367 2.91553 5.88486 3.05271 6.12904 3.2969C6.37323 3.54109 6.51042 3.87228 6.51042 4.21761C6.51042 4.56294 6.37323 4.89413 6.12904 5.13832C5.88486 5.38251 5.55367 5.51969 5.20833 5.51969C4.863 5.51969 4.53181 5.38251 4.28762 5.13832C4.04343 4.89413 3.90625 4.56294 3.90625 4.21761ZM2.34375 8.38428C2.34375 8.17708 2.42606 7.97836 2.57257 7.83185C2.71909 7.68534 2.9178 7.60303 3.125 7.60303H7.29167C7.49887 7.60303 7.69758 7.68534 7.84409 7.83185C7.99061 7.97836 8.07292 8.17708 8.07292 8.38428V21.9259C8.07292 22.1331 7.99061 22.3319 7.84409 22.4784C7.69758 22.6249 7.49887 22.7072 7.29167 22.7072H3.125C2.9178 22.7072 2.71909 22.6249 2.57257 22.4784C2.42606 22.3319 2.34375 22.1331 2.34375 21.9259V8.38428ZM3.90625 9.16553V21.1447H6.51042V9.16553H3.90625ZM9.63542 8.38428C9.63542 8.17708 9.71773 7.97836 9.86424 7.83185C10.0108 7.68534 10.2095 7.60303 10.4167 7.60303H14.5833C14.7905 7.60303 14.9892 7.68534 15.1358 7.83185C15.2823 7.97836 15.3646 8.17708 15.3646 8.38428V8.83636L15.8177 8.64157C16.599 8.30782 17.4278 8.09868 18.274 8.02178C21.1646 7.75928 23.6979 10.0301 23.6979 12.9468V21.9259C23.6979 22.1331 23.6156 22.3319 23.4691 22.4784C23.3226 22.6249 23.1239 22.7072 22.9167 22.7072H18.75C18.5428 22.7072 18.3441 22.6249 18.1976 22.4784C18.0511 22.3319 17.9687 22.1331 17.9687 21.9259V14.6343C17.9687 14.2889 17.8316 13.9578 17.5874 13.7136C17.3432 13.4694 17.012 13.3322 16.6667 13.3322C16.3213 13.3322 15.9901 13.4694 15.746 13.7136C15.5018 13.9578 15.3646 14.2889 15.3646 14.6343V21.9259C15.3646 22.1331 15.2823 22.3319 15.1358 22.4784C14.9892 22.6249 14.7905 22.7072 14.5833 22.7072H10.4167C10.2095 22.7072 10.0108 22.6249 9.86424 22.4784C9.71773 22.3319 9.63542 22.1331 9.63542 21.9259V8.38428ZM11.1979 9.16553V21.1447H13.8021V14.6343C13.8021 13.8745 14.1039 13.1459 14.6411 12.6087C15.1783 12.0715 15.9069 11.7697 16.6667 11.7697C17.4264 11.7697 18.155 12.0715 18.6922 12.6087C19.2294 13.1459 19.5312 13.8745 19.5312 14.6343V21.1447H22.1354V12.9468C22.1354 10.9634 20.4052 9.39678 18.4167 9.57803C17.7335 9.64001 17.0642 9.80872 16.4333 10.078L14.8917 10.7395C14.7728 10.7906 14.643 10.8113 14.5141 10.7998C14.3852 10.7884 14.2612 10.7451 14.1531 10.6738C14.0451 10.6025 13.9565 10.5056 13.8952 10.3916C13.8339 10.2776 13.8019 10.1501 13.8021 10.0207V9.16553H11.1979Z" fill="white"/>
</svg>
