<svg width="25" height="26" viewBox="0 0 25 26" fill="none" xmlns="http://www.w3.org/2000/svg">
<path d="M12.5062 4.5249C9.725 4.5249 6.94583 5.34157 4.54271 6.97595H0L2.04479 9.1999C1.11313 10.0487 0.460018 11.1595 0.17125 12.3864C-0.117517 13.6132 -0.0284318 14.8987 0.426803 16.074C0.882038 17.2492 1.68213 18.2593 2.72197 18.9715C3.76181 19.6837 4.99277 20.0647 6.25312 20.0645C7.82786 20.0654 9.34452 19.4699 10.4979 18.3978L12.5 20.577L14.5021 18.3999C15.6545 19.4714 17.1702 20.0663 18.7437 20.0645C20.401 20.0645 21.9904 19.4063 23.1624 18.2346C24.3345 17.063 24.9932 15.4738 24.9937 13.8166C24.9948 12.9474 24.814 12.0876 24.463 11.2925C24.1119 10.4974 23.5983 9.78462 22.9552 9.1999L25 6.97595H20.4687C18.1211 5.37756 15.3464 4.52344 12.5062 4.5249ZM12.5 6.56657C14.0948 6.56657 15.6906 6.8822 17.1917 7.5072C14.524 8.52803 12.5 10.9155 12.5 13.6968C12.5 10.9145 10.4771 8.52803 7.80833 7.5072C9.29477 6.88707 10.8894 6.56668 12.5 6.56657ZM6.25208 9.58949C6.80733 9.58949 7.35714 9.69885 7.87012 9.91133C8.3831 10.1238 8.8492 10.4353 9.24182 10.8279C9.63444 11.2205 9.94588 11.6866 10.1584 12.1996C10.3708 12.7126 10.4802 13.2624 10.4802 13.8176C10.4802 14.3729 10.3708 14.9227 10.1584 15.4356C9.94588 15.9486 9.63444 16.4147 9.24182 16.8074C8.8492 17.2 8.3831 17.5114 7.87012 17.7239C7.35714 17.9364 6.80733 18.0457 6.25208 18.0457C5.13071 18.0457 4.05527 17.6003 3.26235 16.8074C2.46942 16.0144 2.02396 14.939 2.02396 13.8176C2.02396 12.6962 2.46942 11.6208 3.26235 10.8279C4.05527 10.035 5.13071 9.58949 6.25208 9.58949ZM18.7437 9.59157C19.2988 9.59137 19.8484 9.70049 20.3613 9.9127C20.8742 10.1249 21.3402 10.4361 21.7328 10.8284C22.1255 11.2207 22.437 11.6865 22.6495 12.1993C22.8621 12.712 22.9717 13.2615 22.9719 13.8166C22.9721 14.3716 22.863 14.9213 22.6507 15.4341C22.4385 15.947 22.1274 16.413 21.735 16.8057C21.3427 17.1983 20.8769 17.5098 20.3642 17.7224C19.8515 17.935 19.3019 18.0445 18.7469 18.0447C17.6259 18.0451 16.5507 17.6002 15.7578 16.8079C14.9649 16.0155 14.5192 14.9407 14.5187 13.8197C14.5183 12.6987 14.9632 11.6235 15.7556 10.8306C16.5479 10.0377 17.6228 9.59199 18.7437 9.59157ZM6.25208 11.602C5.66419 11.602 5.10037 11.8355 4.68466 12.2512C4.26896 12.6669 4.03542 13.2308 4.03542 13.8187C4.03542 14.4066 4.26896 14.9704 4.68466 15.3861C5.10037 15.8018 5.66419 16.0353 6.25208 16.0353C6.83998 16.0353 7.4038 15.8018 7.8195 15.3861C8.23521 14.9704 8.46875 14.4066 8.46875 13.8187C8.46875 13.2308 8.23521 12.6669 7.8195 12.2512C7.4038 11.8355 6.83998 11.602 6.25208 11.602ZM18.7437 11.602C18.1559 11.602 17.592 11.8355 17.1763 12.2512C16.7606 12.6669 16.5271 13.2308 16.5271 13.8187C16.5271 14.4066 16.7606 14.9704 17.1763 15.3861C17.592 15.8018 18.1559 16.0353 18.7437 16.0353C19.3316 16.0353 19.8955 15.8018 20.3112 15.3861C20.7269 14.9704 20.9604 14.4066 20.9604 13.8187C20.9604 13.2308 20.7269 12.6669 20.3112 12.2512C19.8955 11.8355 19.3316 11.602 18.7437 11.602Z" fill="white"/>
</svg>
