<svg width="45" height="63" viewBox="0 0 45 63" fill="none" xmlns="http://www.w3.org/2000/svg">
<rect width="45" height="63" fill="black"/>
<path d="M22.5 43C28.8514 43 34 37.8514 34 31.5C34 25.1486 28.8514 20 22.5 20C16.1486 20 11 25.1486 11 31.5C11 37.8514 16.1486 43 22.5 43Z" stroke="white" stroke-width="1.5"/>
<path d="M11 29.6825C12.7338 28.8641 14.0161 28.7501 14.8468 29.3404C16.0928 30.2259 16.2486 33.8363 19.0834 32.1113C21.9181 30.3863 17.8695 29.6825 18.7481 27.1836C19.6267 24.6841 22.5046 26.6258 22.7904 23.8883C22.9817 22.0632 20.7986 21.3648 16.2411 21.793" stroke="white" stroke-width="1.5"/>
<path d="M29.3977 22.2998C26.1122 25.1683 24.9647 26.9004 25.9552 27.4961C27.441 28.3902 28.0712 27.1315 29.8847 27.4961C31.6983 27.8606 31.305 30.3188 30.3516 30.3188C29.3983 30.3188 24.4585 29.6897 24.7074 32.5722C24.9564 35.4547 27.9274 35.8813 27.9274 37.4919C27.9274 38.5652 27.27 40.2084 25.9552 42.4214M12.2075 36.6323C12.5995 36.4598 12.9936 36.2923 13.3897 36.1297C15.6016 35.2365 17.243 35.0259 18.314 35.4978C20.2069 36.3333 19.479 38.0203 20.0724 38.6419C20.6646 39.2635 22.1458 39.0829 22.1458 40.2651C22.1458 41.0536 21.8809 41.9441 21.3512 42.9366" stroke="white" stroke-width="1.5" stroke-linecap="round"/>
</svg>
