<svg width="45" height="65" viewBox="0 0 45 65" fill="none" xmlns="http://www.w3.org/2000/svg">
<rect width="45" height="65" fill="#D11242"/>
<path d="M31.3124 23.6376C30.1663 22.4802 28.8012 21.5625 27.2968 20.938C25.7925 20.3135 24.1788 19.9947 22.55 20.0001C15.725 20.0001 10.1625 25.5626 10.1625 32.3875C10.1625 34.575 10.7375 36.7 11.8125 38.575L10.0625 45L16.625 43.275C18.4375 44.2625 20.475 44.7875 22.55 44.7875C29.375 44.7875 34.9374 39.225 34.9374 32.4C34.9374 29.0875 33.6499 25.9751 31.3124 23.6376ZM22.55 42.6875C20.7 42.6875 18.8875 42.1875 17.3 41.25L16.925 41.025L13.025 42.05L14.0625 38.25L13.8125 37.8625C12.7844 36.2213 12.2387 34.3241 12.2375 32.3875C12.2375 26.7125 16.8625 22.0876 22.5375 22.0876C25.2875 22.0876 27.875 23.1626 29.8124 25.1126C30.772 26.0674 31.5323 27.2032 32.0495 28.4542C32.5666 29.7052 32.8302 31.0464 32.8249 32.4C32.8499 38.075 28.225 42.6875 22.55 42.6875ZM28.2 34.9875C27.8875 34.8375 26.3625 34.0875 26.0875 33.975C25.8 33.875 25.6 33.825 25.3875 34.125C25.175 34.4375 24.5875 35.1375 24.4125 35.3375C24.2375 35.55 24.05 35.575 23.7375 35.4125C23.425 35.2625 22.425 34.925 21.25 33.875C20.325 33.05 19.7125 32.0375 19.525 31.725C19.35 31.4125 19.5 31.25 19.6625 31.0875C19.8 30.95 19.975 30.725 20.125 30.55C20.275 30.375 20.3375 30.2375 20.4375 30.0375C20.5375 29.825 20.4875 29.65 20.4125 29.5C20.3375 29.35 19.7125 27.825 19.4625 27.2C19.2125 26.6 18.95 26.675 18.7625 26.6625H18.1625C17.95 26.6625 17.625 26.7375 17.3375 27.05C17.0625 27.3625 16.2625 28.1125 16.2625 29.6375C16.2625 31.1625 17.375 32.6375 17.525 32.8375C17.675 33.05 19.7125 36.175 22.8125 37.5125C23.55 37.8375 24.125 38.025 24.575 38.1625C25.3125 38.4 25.9875 38.3625 26.525 38.2875C27.125 38.2 28.3625 37.5375 28.6125 36.8125C28.875 36.0875 28.875 35.475 28.7875 35.3375C28.7 35.2 28.5125 35.1375 28.2 34.9875Z" fill="white"/>
</svg>
