<svg width="14" height="18" viewBox="0 0 14 18" fill="none" xmlns="http://www.w3.org/2000/svg">
<path d="M6.9987 0.720215C3.33203 0.720215 0.332031 3.72021 0.332031 7.38688C0.332031 11.8869 6.16536 16.9702 6.41536 17.2202C6.58203 17.3035 6.83203 17.3869 6.9987 17.3869C7.16536 17.3869 7.41536 17.3035 7.58203 17.2202C7.83203 16.9702 13.6654 11.8869 13.6654 7.38688C13.6654 3.72021 10.6654 0.720215 6.9987 0.720215ZM6.9987 15.4702C5.2487 13.8035 1.9987 10.2202 1.9987 7.38688C1.9987 4.63688 4.2487 2.38688 6.9987 2.38688C9.7487 2.38688 11.9987 4.63688 11.9987 7.38688C11.9987 10.1369 8.7487 13.8035 6.9987 15.4702ZM6.9987 4.05355C5.16536 4.05355 3.66536 5.55355 3.66536 7.38688C3.66536 9.22021 5.16536 10.7202 6.9987 10.7202C8.83203 10.7202 10.332 9.22021 10.332 7.38688C10.332 5.55355 8.83203 4.05355 6.9987 4.05355ZM6.9987 9.05355C6.08203 9.05355 5.33203 8.30355 5.33203 7.38688C5.33203 6.47021 6.08203 5.72021 6.9987 5.72021C7.91536 5.72021 8.66536 6.47021 8.66536 7.38688C8.66536 8.30355 7.91536 9.05355 6.9987 9.05355Z" fill="white"/>
</svg>
