<svg width="18" height="14" viewBox="0 0 18 14" fill="none" xmlns="http://www.w3.org/2000/svg">
<path d="M2.33464 13.7176C1.8763 13.7176 1.48408 13.5546 1.15797 13.2284C0.831858 12.9023 0.668524 12.5098 0.667969 12.0509V2.05094C0.667969 1.59261 0.831302 1.20039 1.15797 0.874277C1.48464 0.548166 1.87686 0.384833 2.33464 0.384277H15.668C16.1263 0.384277 16.5188 0.547611 16.8455 0.874277C17.1721 1.20094 17.3352 1.59317 17.3346 2.05094V12.0509C17.3346 12.5093 17.1716 12.9018 16.8455 13.2284C16.5194 13.5551 16.1269 13.7182 15.668 13.7176H2.33464ZM9.0013 7.88428L2.33464 3.71761V12.0509H15.668V3.71761L9.0013 7.88428ZM9.0013 6.21761L15.668 2.05094H2.33464L9.0013 6.21761ZM2.33464 3.71761V2.05094V12.0509V3.71761Z" fill="white"/>
</svg>
