<svg width="17" height="17" viewBox="0 0 17 17" fill="none" xmlns="http://www.w3.org/2000/svg">
<path d="M15.5 11.1457L11.8211 9.49644L11.807 9.49018C11.5679 9.38709 11.3067 9.34559 11.0474 9.36947C10.7881 9.39336 10.5389 9.48186 10.3227 9.6269C10.2923 9.64719 10.2631 9.6691 10.2352 9.69253L8.49219 11.1769C7.47657 10.6261 6.42735 9.5855 5.87579 8.58237L7.36485 6.81206C7.38875 6.78346 7.41092 6.75346 7.43125 6.72222C7.57249 6.50671 7.65824 6.25962 7.68087 6.00296C7.70349 5.74629 7.6623 5.48801 7.56094 5.25112C7.55853 5.24659 7.55644 5.24189 7.55469 5.23706L5.90625 1.5519C5.77094 1.24372 5.54001 0.987284 5.24763 0.820551C4.95525 0.653818 4.61696 0.585645 4.28282 0.626122C3.14873 0.775101 2.10765 1.3318 1.35402 2.19226C0.600385 3.05271 0.185733 4.15808 0.187506 5.3019C0.187506 11.6777 5.37422 16.8644 11.75 16.8644C12.8938 16.8662 13.9992 16.4515 14.8596 15.6979C15.7201 14.9443 16.2768 13.9032 16.4258 12.7691C16.4663 12.435 16.3981 12.0967 16.2314 11.8043C16.0646 11.5119 15.8082 11.281 15.5 11.1457ZM11.75 14.9894C9.18167 14.9863 6.71942 13.9647 4.90333 12.1486C3.08725 10.3325 2.06561 7.87024 2.06251 5.3019C2.06072 4.65463 2.28046 4.02624 2.68522 3.52114C3.08999 3.01603 3.6554 2.66464 4.28751 2.52534L5.75782 5.80659L4.26094 7.5894C4.23675 7.61824 4.21431 7.6485 4.19376 7.68003C4.04622 7.90546 3.95947 8.16521 3.94195 8.43406C3.92443 8.70291 3.97672 8.97173 4.09376 9.2144C4.82969 10.7207 6.3461 12.2269 7.86797 12.9644C8.11227 13.0802 8.38244 13.1307 8.65207 13.1108C8.92169 13.091 9.18156 13.0015 9.40625 12.8511C9.43643 12.8307 9.46538 12.8085 9.49297 12.7847L11.2453 11.2949L14.5266 12.7644C14.3873 13.3965 14.0359 13.9619 13.5308 14.3667C13.0257 14.7714 12.3973 14.9912 11.75 14.9894Z" fill="white"/>
</svg>
