<svg width="25" height="26" viewBox="0 0 25 26" fill="none" xmlns="http://www.w3.org/2000/svg">
<path d="M24.6338 18.2529C24.8041 17.9786 24.9999 17.4872 24.9999 17.1054V15.5826C24.9999 14.9626 24.6982 14.4118 24.2339 14.0692C24.6878 13.7336 25 13.1137 25 12.5537C25 11.9369 24.7016 11.3885 24.2416 11.0452V4.96582C24.2416 3.92925 23.3983 3.08594 22.3618 3.08594H13.2979C13.0956 3.08594 12.9316 3.2499 12.9316 3.45215C12.9316 3.65439 13.0956 3.81836 13.2979 3.81836H22.3618C22.9945 3.81836 23.5093 4.33311 23.5093 4.96582V10.7132C23.269 10.6623 22.9748 10.6632 22.7249 10.6724V5.70112C22.7249 5.09531 22.232 4.60249 21.6262 4.60249H3.37378C2.76797 4.60249 2.27515 5.09531 2.27515 5.70112V10.6724C2.02515 10.6633 1.73115 10.6622 1.49072 10.7127V4.96582C1.49072 4.33311 2.00547 3.81836 2.63818 3.81836H11.7021C11.9044 3.81836 12.0684 3.65439 12.0684 3.45215C12.0684 3.2499 11.9044 3.08594 11.7021 3.08594H2.63818C1.60161 3.08594 0.758301 3.92925 0.758301 4.96582V11.044C0.308789 11.3799 0 11.9973 0 12.5537C0 13.1743 0.3021 13.7257 0.766895 14.0686C0.302148 14.4112 9.76563e-05 14.9623 9.76563e-05 15.5827V17.1055C9.76563e-05 17.5372 0.146387 17.9353 0.391943 18.253H0.366211C0.163965 18.253 0 18.4169 0 18.6192V20.1358C0 20.338 0.163965 20.502 0.366211 20.502H1.5168V21.6525C1.5168 21.8548 1.68076 22.0188 1.88301 22.0188H3.39971C3.60195 22.0188 3.76592 21.8548 3.76592 21.6525V20.502H6.77246C6.97471 20.502 7.13867 20.338 7.13867 20.1358C7.13867 19.9335 6.97471 19.7696 6.77246 19.7696H0.732422V18.9854H24.2676V19.7696H8.36865C8.16641 19.7696 8.00244 19.9335 8.00244 20.1358C8.00244 20.338 8.16641 20.502 8.36865 20.502H21.234V21.6525C21.234 21.8548 21.3979 22.0188 21.6002 22.0188H23.1169C23.3192 22.0188 23.4832 21.8548 23.4832 21.6525V20.502H24.6338C24.8361 20.502 25 20.338 25 20.1358V18.6192C25 18.4169 24.8361 18.2529 24.6338 18.2529ZM3.00757 5.70112C3.00757 5.49922 3.17183 5.33491 3.37378 5.33491H21.6262C21.8281 5.33491 21.9924 5.49922 21.9924 5.70112V10.6724H21.1442C21.1855 10.5569 21.208 10.4327 21.208 10.3032V8.73438C21.208 8.12856 20.7151 7.63574 20.1094 7.63574H14.749C14.1433 7.63574 13.6504 8.12856 13.6504 8.73438V10.3032C13.6504 10.4327 13.6729 10.5569 13.7142 10.6724H11.2856C11.327 10.5569 11.3495 10.4326 11.3495 10.3031V8.73452C11.3495 8.12871 10.8567 7.63589 10.2509 7.63589H4.89053C4.28472 7.63589 3.79189 8.12871 3.79189 8.73452V10.3031C3.79189 10.4326 3.8144 10.5569 3.85576 10.6724H3.00762L3.00757 5.70112ZM4.52432 10.3031V8.73452C4.52432 8.53257 4.68857 8.36831 4.89053 8.36831H10.2509C10.4528 8.36831 10.6171 8.53257 10.6171 8.73452V10.3031C10.6171 10.5051 10.4528 10.6693 10.2509 10.6693H4.89053C4.68857 10.6693 4.52432 10.5051 4.52432 10.3031ZM1.88135 11.4048H16.6313C16.8336 11.4048 16.9976 11.2408 16.9976 11.0386C16.9976 11.0381 16.9976 11.0376 16.9976 11.0371C16.9976 11.0366 16.9976 11.0361 16.9976 11.0356C16.9976 10.8334 16.8336 10.6694 16.6313 10.6694H14.749C14.5471 10.6694 14.3828 10.5052 14.3828 10.3032V8.73438C14.3828 8.53242 14.5471 8.36816 14.749 8.36816H20.1094C20.3113 8.36816 20.4756 8.53242 20.4756 8.73438V10.3032C20.4756 10.5052 20.3113 10.6694 20.1094 10.6694H18.2275C18.0252 10.6694 17.8613 10.8334 17.8613 11.0356V11.0371V11.0386C17.8613 11.2408 18.0252 11.4048 18.2275 11.4048H23.1187C23.7522 11.4048 24.2676 11.9202 24.2676 12.5537C24.2018 13.2539 23.8188 13.6369 23.1187 13.7026H1.88135C1.2478 13.7026 0.732422 13.1872 0.732422 12.5537C0.732422 12.2469 0.998047 11.4048 1.88135 11.4048ZM0.73252 15.5826C0.73252 14.9499 1.24727 14.4352 1.87998 14.4352H23.12C23.7527 14.4352 24.2675 14.9499 24.2675 15.5826V17.1054C24.2675 17.7381 23.7527 18.2529 23.12 18.2529H1.87998C1.24727 18.2529 0.73252 17.7381 0.73252 17.1054V15.5826ZM3.0335 21.2863H2.24922V20.5021H3.0335V21.2863ZM22.7508 21.2863H21.9665V20.5021H22.7508V21.2863Z" fill="black"/>
</svg>
