<svg width="25" height="25" viewBox="0 0 25 25" fill="none" xmlns="http://www.w3.org/2000/svg">
<path d="M12.5 24C18.8514 24 24 18.8514 24 12.5C24 6.14855 18.8514 1 12.5 1C6.14855 1 1 6.14855 1 12.5C1 18.8514 6.14855 24 12.5 24Z" stroke="white" stroke-width="1.5"/>
<path d="M1 10.6825C2.73382 9.86411 4.01607 9.75007 4.84675 10.3404C6.09278 11.2259 6.2486 14.8363 9.08335 13.1113C11.9181 11.3863 7.86953 10.6825 8.74813 8.18358C9.62673 5.68405 12.5046 7.62583 12.7904 4.88825C12.9817 3.0632 10.7986 2.36477 6.24113 2.79295" stroke="white" stroke-width="1.5"/>
<path d="M19.3977 3.2998C16.1122 6.16829 14.9647 7.90038 15.9552 8.49608C17.441 9.3902 18.0712 8.13153 19.8847 8.49608C21.6983 8.86063 21.305 11.3188 20.3516 11.3188C19.3983 11.3188 14.4585 10.6897 14.7074 13.5722C14.9564 16.4547 17.9274 16.8813 17.9274 18.4919C17.9274 19.5652 17.27 21.2084 15.9552 23.4214M2.20752 17.6323C2.59947 17.4598 2.99357 17.2923 3.38972 17.1297C5.60155 16.2365 7.24299 16.0259 8.31402 16.4978C10.2069 17.3333 9.47897 19.0203 10.0724 19.6419C10.6646 20.2635 12.1458 20.0829 12.1458 21.2651C12.1458 22.0536 11.8809 22.9441 11.3512 23.9366" stroke="white" stroke-width="1.5" stroke-linecap="round"/>
</svg>
