<svg width="67" height="55" viewBox="0 0 67 55" fill="none" xmlns="http://www.w3.org/2000/svg">
<path d="M3.3125 54.9369V20.2558C2.45 19.8379 1.75521 19.2764 1.22812 18.571C0.701042 17.8657 0.4375 17.0501 0.4375 16.1244C0.4375 15.2811 0.810292 14.2988 1.55587 13.1775C2.30146 12.0563 3.36617 10.8459 4.75 9.54639C6.13575 10.8478 7.20142 12.0582 7.947 13.1775C8.69258 14.2968 9.06442 15.2791 9.0625 16.1244C9.0625 17.0521 8.79896 17.8676 8.27187 18.571C7.74479 19.2764 7.05 19.8379 6.1875 20.2558V34.8119H14.8125V27.6244C14.8125 26.5012 15.1862 25.5266 15.9337 24.7005C16.6812 23.8744 17.6453 23.4221 18.826 23.3435H20.8184C19.8102 22.4197 19.0368 21.377 18.4983 20.2155C17.9597 19.054 17.6894 17.7861 17.6875 16.4119C17.6875 14.7444 18.0881 13.2015 18.8892 11.7831C19.6885 10.3686 20.7618 9.20235 22.1093 8.28427L33.5 0.587891L44.8908 8.28427C46.2382 9.20235 47.3115 10.3696 48.1108 11.786C48.9119 13.2043 49.3125 14.7463 49.3125 16.4119C49.3125 17.7861 49.0423 19.054 48.5018 20.2155C47.9613 21.377 47.1888 22.4206 46.1845 23.3464H48.174C49.3527 23.4231 50.3168 23.8735 51.0663 24.6976C51.8138 25.5256 52.1875 26.5012 52.1875 27.6244V34.8119H60.8125V20.2558C59.95 19.8379 59.2552 19.2764 58.7281 18.571C58.201 17.8676 57.9375 17.0521 57.9375 16.1244C57.9375 15.2811 58.3103 14.2988 59.0559 13.1775C59.8015 12.0563 60.8662 10.8459 62.25 9.54639C63.6357 10.8478 64.7014 12.0582 65.447 13.1775C66.1926 14.2968 66.5644 15.2791 66.5625 16.1244C66.5625 17.0521 66.299 17.8676 65.7719 18.571C65.2448 19.2764 64.55 19.8379 63.6875 20.2558V54.9369H37.8125V44.8744C37.8125 43.6918 37.3899 42.6769 36.5446 41.8298C35.6975 40.9845 34.6826 40.5619 33.5 40.5619C32.3174 40.5619 31.3025 40.9845 30.4554 41.8298C29.6082 42.675 29.1856 43.6899 29.1875 44.8744V54.9369H3.3125ZM27.4625 23.3119H39.5375C41.4388 23.3119 43.0642 22.6372 44.4135 21.2879C45.7628 19.9386 46.4375 18.3161 46.4375 16.4205C46.4375 15.236 46.1663 14.1282 45.6239 13.097C45.0815 12.0658 44.3167 11.2321 43.3296 10.5958L33.5 4.06089L23.6675 10.5958C22.6823 11.234 21.9185 12.0678 21.3761 13.097C20.8337 14.1263 20.5625 15.2341 20.5625 16.4205C20.5625 18.318 21.2372 19.9405 22.5865 21.2879C23.9358 22.6353 25.5612 23.31 27.4625 23.3119ZM6.1875 52.0619H26.3125V44.8744C26.3125 42.8772 27.0111 41.181 28.4084 39.7856C29.8037 38.3865 31.499 37.6869 33.4943 37.6869C35.4895 37.6869 37.1867 38.3865 38.5859 39.7856C39.985 41.1848 40.6856 42.8811 40.6875 44.8744V52.0619H60.8125V37.6869H49.3125V27.6244C49.3125 27.2181 49.1745 26.8769 48.8985 26.6009C48.6225 26.3249 48.2813 26.1869 47.875 26.1869H19.125C18.7187 26.1869 18.3775 26.3249 18.1015 26.6009C17.8255 26.8769 17.6875 27.2181 17.6875 27.6244V37.6869H6.1875V52.0619Z" fill="#D11242"/>
</svg>
