<svg width="57" height="57" viewBox="0 0 57 57" fill="none" xmlns="http://www.w3.org/2000/svg">
<path d="M44.675 49.2L39.5 25.625L49.5625 15.5625C53.875 11.25 55.3125 5.5 53.875 2.625C51 1.1875 45.25 2.625 40.9375 6.9375L30.875 17L7.3 11.825C5.8625 11.5375 4.7125 12.1125 4.1375 13.2625L3.275 14.7C2.7 16.1375 2.9875 17.575 4.1375 18.4375L19.375 28.5L13.625 37.125H5L2.125 40L10.75 45.75L16.5 54.375L19.375 51.5V42.875L28 37.125L38.0625 52.3625C38.925 53.5125 40.3625 53.8 41.8 53.225L43.2375 52.65C44.3875 51.7875 44.9625 50.6375 44.675 49.2Z" stroke="#D11242" stroke-width="4" stroke-linecap="round" stroke-linejoin="round"/>
</svg>
