<svg width="62" height="59" viewBox="0 0 62 59" fill="none" xmlns="http://www.w3.org/2000/svg">
<path d="M2.25 56.7952C5.97312 57.0712 9.104 53.9375 11.8324 53.9375C14.5608 53.9375 18.9969 56.8269 21.4176 56.7952C24.3214 56.8211 27.7225 53.9375 31 53.9375C34.2775 53.9375 37.6786 56.8211 40.5824 56.7952C44.3055 57.0712 47.4364 53.9375 50.1676 53.9375C52.8989 53.9375 57.3292 56.8269 59.75 56.7952M13.75 53.9375C9.67325 48.8602 6.80113 42.3599 5.57638 38.9156C5.18825 37.8231 4.99562 37.2769 5.21987 36.7536C5.447 36.2332 5.99612 35.9889 7.103 35.5001L28.6368 25.9609C29.7983 25.4434 30.3819 25.1875 31 25.1875C31.6181 25.1875 32.2017 25.4463 33.3661 25.9638L54.897 35.5001C56.001 35.9889 56.553 36.2332 56.7801 36.7536C57.0044 37.2769 56.8089 37.8231 56.4236 38.9156C55.1989 42.3599 52.3267 48.8602 48.25 53.9375" stroke="#D11242" stroke-width="3" stroke-linecap="round" stroke-linejoin="round"/>
<path d="M13.75 32.375L14.371 24.3049C14.7591 19.2679 14.9518 16.7494 16.6049 15.2199C18.258 13.6875 20.7851 13.6875 25.8365 13.6875H36.1635C41.2149 13.6875 43.742 13.6875 45.3923 15.2199C47.0483 16.7494 47.2409 19.2679 47.629 24.3049L48.25 32.375" stroke="#D11242" stroke-width="3" stroke-linecap="round" stroke-linejoin="round"/>
<path d="M20.9375 13.6875L21.432 9.743C21.8805 6.14637 22.1047 4.34662 23.3295 3.26562C24.5514 2.1875 26.3626 2.1875 29.988 2.1875H32.012C35.6345 2.1875 37.4486 2.1875 38.6705 3.26562C39.8953 4.34662 40.1195 6.14637 40.568 9.743L41.0625 13.6875" stroke="#D11242" stroke-width="3" stroke-linecap="round" stroke-linejoin="round"/>
</svg>
