<svg width="42" height="57" viewBox="0 0 42 57" fill="none" xmlns="http://www.w3.org/2000/svg">
<path d="M0.875 42.2099V16.0014C0.875 12.4958 2.65367 10.2092 6.211 9.14166C9.76833 8.07407 14.1824 7.48566 19.4532 7.37641L21.6095 3.06391H6.84638V0.519531H35.1536V3.06391H24.7059L22.5496 7.37641C27.9182 7.48374 32.3563 8.06832 35.8638 9.13016C39.3713 10.1977 41.125 12.4882 41.125 16.0014V42.2099C41.125 44.5195 40.32 46.4793 38.71 48.0893C37.1019 49.6974 35.1431 50.5014 32.8335 50.5014L37.146 54.8139V56.2514H34.7109L28.9609 50.5014H13.0391L7.28912 56.2514H4.85688V54.8139L9.16938 50.5014C6.85788 50.5014 4.89808 49.6964 3.29 48.0864C1.68 46.4802 0.875 44.5224 0.875 42.2128M32.8335 33.2514H3.75H38.25H32.8335ZM21 43.6474C21.9028 43.6474 22.6627 43.3379 23.2799 42.7188C23.899 42.1016 24.2085 41.3417 24.2085 40.4389C24.2085 39.5362 23.899 38.7762 23.2799 38.159C22.6627 37.5399 21.9028 37.2304 21 37.2304C20.0972 37.2304 19.3373 37.5399 18.7201 38.159C18.101 38.7762 17.7915 39.5362 17.7915 40.4389C17.7915 41.3417 18.101 42.1016 18.7201 42.7188C19.3373 43.3379 20.0972 43.6474 21 43.6474ZM20.9655 14.676H38.0171H4.0145H20.9655ZM3.75 30.3764H38.25V17.551H3.75V30.3764ZM9.16938 47.6264H32.8306C34.3352 47.6264 35.6146 47.0993 36.6688 46.0452C37.7229 44.991 38.25 43.7116 38.25 42.207V33.2514H3.75V42.2099C3.75 43.7126 4.27708 44.991 5.33125 46.0452C6.38542 47.0993 7.66479 47.6264 9.16938 47.6264ZM20.9684 10.2514C15.0267 10.2514 10.8321 10.6357 8.3845 11.4043C5.93692 12.1729 4.48025 13.2634 4.0145 14.676H38.0171C37.5533 13.2309 36.0899 12.1317 33.6212 11.3784C31.1526 10.6252 26.935 10.2495 20.9684 10.2514Z" fill="#D11242"/>
</svg>
