<svg width="25" height="25" viewBox="0 0 25 25" fill="none" xmlns="http://www.w3.org/2000/svg">
<path d="M21.3124 3.63756C20.1663 2.48019 18.8012 1.56252 17.2968 0.938018C15.7925 0.313515 14.1788 -0.00532895 12.55 6.73687e-05C5.72499 6.73687e-05 0.1625 5.56255 0.1625 12.3875C0.1625 14.575 0.737498 16.7 1.8125 18.575L0.0625 25L6.62498 23.275C8.43748 24.2625 10.475 24.7875 12.55 24.7875C19.375 24.7875 24.9374 19.225 24.9374 12.4C24.9374 9.08754 23.6499 5.97505 21.3124 3.63756ZM12.55 22.6875C10.7 22.6875 8.88748 22.1875 7.29998 21.25L6.92498 21.025L3.02499 22.05L4.06249 18.25L3.81249 17.8625C2.78443 16.2213 2.23865 14.3241 2.23749 12.3875C2.23749 6.71255 6.86248 2.08756 12.5375 2.08756C15.2875 2.08756 17.875 3.16256 19.8124 5.11255C20.772 6.06738 21.5323 7.20323 22.0495 8.45421C22.5666 9.70518 22.8302 11.0464 22.8249 12.4C22.8499 18.075 18.225 22.6875 12.55 22.6875ZM18.2 14.9875C17.8875 14.8375 16.3625 14.0875 16.0875 13.975C15.8 13.875 15.6 13.825 15.3875 14.125C15.175 14.4375 14.5875 15.1375 14.4125 15.3375C14.2375 15.55 14.05 15.575 13.7375 15.4125C13.425 15.2625 12.425 14.925 11.25 13.875C10.325 13.05 9.71247 12.0375 9.52497 11.725C9.34998 11.4125 9.49998 11.25 9.66247 11.0875C9.79997 10.95 9.97497 10.725 10.125 10.55C10.275 10.375 10.3375 10.2375 10.4375 10.0375C10.5375 9.82504 10.4875 9.65004 10.4125 9.50004C10.3375 9.35004 9.71247 7.82505 9.46247 7.20005C9.21248 6.60005 8.94998 6.67505 8.76248 6.66255H8.16248C7.94998 6.66255 7.62498 6.73755 7.33748 7.05005C7.06248 7.36255 6.26248 8.11255 6.26248 9.63754C6.26248 11.1625 7.37498 12.6375 7.52498 12.8375C7.67498 13.05 9.71247 16.175 12.8125 17.5125C13.55 17.8375 14.125 18.025 14.575 18.1625C15.3125 18.4 15.9875 18.3625 16.525 18.2875C17.125 18.2 18.3625 17.5375 18.6125 16.8125C18.875 16.0875 18.875 15.475 18.7875 15.3375C18.7 15.2 18.5125 15.1375 18.2 14.9875Z" fill="white"/>
</svg>
